<svg xmlns="http://www.w3.org/2000/svg" width="200" height="200" class="icon" viewBox="0 0 1024 1024">
  <defs/>
  <defs/>
  <path fill="#C5AC95" d="M416.968 782.713H628.83v135.356c0 58.503-47.433 105.931-105.93 105.931-58.51 0-105.932-47.428-105.932-105.931V782.713z"/>
  <path fill="#4D4132" d="M891.586 523.77H126.53V147.126C126.529 65.871 192.4 0 273.655 0H744.46c81.255 0 147.126 65.871 147.126 147.126V523.77z"/>
  <path fill="#C9AB90" d="M106.702 557.986c0 51.777 41.972 93.749 93.749 93.749 51.77 0 93.743-41.972 93.743-93.75 0-51.77-41.972-93.742-93.749-93.742-51.77 0-93.743 41.972-93.743 93.749z"/>
  <path fill="#EBD3BD" d="M492.097 78.848c172.585 0 312.479 139.9 312.479 312.485v354.145c0 92.042-74.611 166.653-166.653 166.653H304.605c-69.026 0-124.987-55.967-124.987-124.993V391.333c0-172.585 139.894-312.485 312.479-312.485z"/>
  <path fill="#4D4132" d="M138.299 114.759a270.713 97.103 0 10541.425 0 270.713 97.103 0 10-541.425 0zM691.494 632.644a100.046 79.448 0 10200.092 0 100.046 79.448 0 10-200.092 0z"/>
  <path fill="#EBD3BD" d="M731.666 557.986c0 51.777 41.972 93.749 93.743 93.749s93.749-41.972 93.749-93.75c0-51.77-41.978-93.742-93.75-93.742s-93.748 41.972-93.748 93.749z"/>
  <path fill="#E89E80" d="M783.743 547.57a41.666 41.666 0 1083.332.017 41.666 41.666 0 00-83.332-.018z"/>
  <path fill="#FFF" d="M200.445 422.577a83.332 83.332 0 10166.659 0c0-46.022-37.311-83.327-83.332-83.327s-83.327 37.311-83.327 83.332z"/>
  <path fill="#514141" d="M242.111 427.785a36.458 36.458 0 1072.916 0 36.458 36.458 0 00-72.916 0z"/>
  <path fill="#FFF" d="M492.097 422.577c0 46.02 37.311 83.332 83.332 83.332s83.32-37.311 83.32-83.332-37.305-83.327-83.326-83.327-83.332 37.311-83.332 83.332z"/>
  <path fill="#514141" d="M533.763 427.785a36.458 36.458 0 1072.91 0 36.458 36.458 0 00-72.916 0z"/>
  <path fill="#4D4132" d="M738.575 559.08c35.751 0 64.735 28.984 64.735 64.736v138.299c0 112.134-90.9 203.034-203.034 203.034H353.103c-112.133 0-203.034-90.9-203.034-203.034V623.816c0-35.752 28.984-64.736 64.736-64.736h523.77zm-229.518 52.966H326.621a41.195 41.195 0 00-41.196 41.195v50.023c0 50.376 40.843 91.219 91.219 91.219h82.39c50.377 0 91.219-40.843 91.219-91.219v-50.023a41.195 41.195 0 00-41.196-41.195z"/>
  <path fill="#E89E80" d="M354.445 683.255c29.108 11.376 49.258 17.067 60.452 17.067 11.193 0 31.343-5.691 60.45-17.067a11.77 11.77 0 0116.055 10.964v21.698a11.77 11.77 0 01-7.415 10.935c-34.369 13.7-57.397 20.55-69.09 20.55-11.688 0-34.722-6.85-69.091-20.55a11.77 11.77 0 01-7.415-10.935V694.22a11.77 11.77 0 0116.054-10.964zM403.562 412.16a37.182 37.182 0 0134.934 24.482l38.853 106.843a72.916 72.916 0 01-68.508 97.827h-16.46a72.916 72.916 0 01-67.473-100.516l42.755-104.53a38.788 38.788 0 0135.899-24.106z"/>
  <path fill="#4D4132" d="M220.69 288.368h129.47q29.426 0 29.426 29.425t-29.425 29.425H220.69q-29.426 0-29.426-29.425t29.426-29.425zM516.279 233.585l122.418 42.151q27.822 9.58 18.242 37.403-9.58 27.822-37.402 18.242l-122.418-42.152q-27.822-9.58-18.242-37.402 9.58-27.822 37.402-18.242z"/>
</svg>
